<svg width="420" height="630" viewBox="0 0 420 630" fill="none" xmlns="http://www.w3.org/2000/svg">
  <defs>
    <linearGradient id="handFill" x1="210" y1="22" x2="210" y2="630" gradientUnits="userSpaceOnUse">
      <stop offset="0" stop-color="#FFE48F"/>
      <stop offset="0.48" stop-color="#FFD257"/>
      <stop offset="1" stop-color="#F2A91F"/>
    </linearGradient>
    <filter id="shadow" x="0" y="0" width="420" height="630" filterUnits="userSpaceOnUse" color-interpolation-filters="sRGB">
      <feDropShadow dx="0" dy="18" stdDeviation="18" flood-color="#000000" flood-opacity="0.24"/>
    </filter>
  </defs>
  <g filter="url(#shadow)">
    <path
      d="M192 22C170 22 154 39 154 61V254L127 197C118 178 98 168 79 171C47 175 29 211 45 239L99 331C119 365 149 391 184 409L173 540C171 566 191 589 217 592L290 600C323 603 351 576 349 542L333 368C361 342 374 304 367 266C358 218 321 182 277 176L249 172V61C249 39 232 22 210 22H192Z"
      fill="url(#handFill)"
    />
    <path
      d="M154 255V116C154 95 171 78 192 78H210C231 78 248 95 248 116V176"
      stroke="#F8C43E"
      stroke-width="22"
      stroke-linecap="round"
    />
    <path
      d="M120 206L155 264"
      stroke="#F8C43E"
      stroke-width="20"
      stroke-linecap="round"
    />
  </g>
</svg>
